<?xml version="1.0" standalone="no"?>
<!DOCTYPE svg PUBLIC "-//W3C//DTD SVG 20010904//EN"
 "http://www.w3.org/TR/2001/REC-SVG-20010904/DTD/svg10.dtd">
<svg version="1.0" xmlns="http://www.w3.org/2000/svg"
 width="821.000000pt" height="980.000000pt" viewBox="0 0 821.000000 980.000000"
 preserveAspectRatio="xMidYMid meet">

<g transform="translate(0.000000,980.000000) scale(0.100000,-0.100000)"
fill="#000000" stroke="none">
<path d="M3115 8492 c-389 -382 -632 -921 -652 -1452 -9 -238 45 -626 118
-844 53 -159 190 -399 342 -601 152 -200 364 -437 409 -456 27 -11 32 -10 45
7 17 23 16 18 47 224 14 91 44 280 66 422 56 354 71 485 72 613 0 171 -38 391
-152 865 -95 398 -92 375 -44 323 34 -39 57 -84 102 -204 104 -272 118 -349
152 -789 29 -387 35 -913 11 -1010 -7 -30 -44 -116 -81 -190 -37 -74 -91 -192
-120 -262 -29 -71 -55 -128 -59 -128 -13 0 -426 424 -512 525 -157 184 -260
333 -361 520 l-65 120 -129 3 c-473 11 -913 -134 -1256 -416 -273 -224 -472
-550 -548 -900 -99 -455 11 -933 298 -1301 264 -338 632 -553 1079 -631 315
-55 613 -46 953 28 l35 8 7 122 c23 422 105 814 271 1307 60 178 151 417 174
455 l14 25 -5 -25 c-3 -14 -16 -61 -29 -105 -55 -177 -175 -741 -243 -1140
-32 -185 -38 -243 -38 -365 0 -140 1 -148 32 -231 65 -170 184 -328 296 -394
128 -75 278 -100 415 -71 135 29 322 137 306 177 -4 12 -24 19 -63 23 -271 32
-330 155 -362 761 -5 105 -12 224 -15 265 -21 316 -14 430 44 656 49 188 112
393 118 378 2 -7 -17 -157 -43 -335 -31 -222 -48 -376 -53 -489 -6 -171 2
-397 16 -411 11 -11 265 -54 433 -74 268 -31 714 -38 965 -15 498 47 914 164
1219 344 487 287 718 715 656 1214 -62 490 -362 884 -760 996 -107 30 -345 48
-915 71 -427 17 -465 20 -465 36 0 14 343 467 429 566 131 151 254 231 443
292 231 73 468 100 572 65 88 -30 190 -145 232 -259 22 -61 23 -63 34 -45 12
19 12 326 0 410 -21 147 -104 246 -244 292 -63 20 -90 23 -241 23 -233 0 -388
-36 -612 -140 -332 -155 -718 -486 -988 -847 -31 -43 -59 -78 -61 -78 -2 0 -1
66 2 148 12 278 -21 454 -138 732 -229 543 -621 1030 -1018 1268 l-36 21 -99
-97z m-723 -2347 c17 -4 35 -29 66 -89 51 -99 198 -325 271 -415 28 -35 49
-66 46 -69 -6 -6 -77 57 -165 147 -52 52 -80 72 -135 94 -83 32 -100 34 -86
10 5 -10 31 -26 58 -35 26 -10 61 -28 78 -41 l29 -24 -16 -39 c-10 -22 -18
-48 -20 -58 -2 -11 -8 -21 -13 -23 -10 -3 -26 16 -95 115 -34 47 -47 52 -52
20 -3 -25 -26 -36 -32 -16 -3 7 -8 40 -11 73 l-7 60 -22 -26 c-15 -17 -28 -56
-40 -116 -16 -85 -16 -92 0 -126 19 -40 46 -47 99 -27 19 7 35 6 62 -5 30 -13
33 -17 23 -30 -15 -18 -7 -19 21 -4 14 7 30 7 57 -2 50 -15 51 -18 67 -85 8
-33 27 -97 43 -144 l30 -85 -42 -8 c-22 -5 -57 -12 -76 -17 -40 -11 -130 -65
-130 -79 0 -5 30 -17 68 -27 85 -22 92 -28 92 -76 0 -48 -21 -91 -68 -140 -42
-44 -87 -51 -117 -18 -30 34 -43 24 -56 -41 -21 -109 -85 -153 -219 -151 -70
1 -130 16 -130 31 0 4 -10 18 -22 30 l-21 24 -18 -34 c-9 -19 -31 -47 -49 -64
-30 -29 -36 -30 -131 -33 -91 -4 -104 -2 -154 22 -97 48 -156 139 -141 219 9
51 66 119 151 182 41 30 75 59 75 65 0 19 -144 -45 -209 -94 -19 -14 -50 -31
-70 -37 -57 -19 -114 -55 -145 -95 -37 -47 -86 -174 -86 -225 0 -57 -14 -79
-51 -79 -25 0 -32 -6 -45 -37 -8 -21 -21 -51 -29 -68 -7 -16 -21 -61 -31 -100
-20 -82 -31 -106 -74 -159 -22 -29 -30 -48 -28 -70 3 -29 6 -31 44 -31 36 0
47 -7 100 -58 95 -92 184 -124 278 -97 57 16 119 5 153 -26 24 -22 50 -30 118
-36 25 -3 30 -8 33 -33 6 -64 12 -72 94 -126 45 -29 122 -86 170 -126 48 -40
91 -73 96 -73 11 0 99 93 214 225 53 61 117 130 142 155 44 42 46 47 46 100 0
55 -27 150 -42 150 -4 0 -8 -15 -8 -33 0 -18 -8 -63 -19 -100 -19 -70 -31 -86
-213 -282 l-66 -70 -78 75 c-44 41 -108 96 -144 122 -109 79 -109 79 -120 135
-9 52 -6 83 10 83 4 0 26 -25 49 -55 23 -30 46 -55 52 -55 7 0 10 27 8 80 -4
77 -5 80 -44 120 -22 22 -56 45 -75 50 -59 16 -143 81 -157 120 -13 37 -17
197 -7 225 6 14 9 14 28 -3 16 -15 43 -21 118 -26 106 -8 159 2 201 34 l26 20
15 -22 c9 -12 16 -28 16 -35 0 -19 8 -16 42 12 32 27 63 31 118 15 19 -6 61
-8 92 -4 48 5 65 12 103 46 54 47 60 45 89 -39 16 -47 16 -54 2 -82 -20 -38
-20 -78 -1 -115 19 -35 13 -56 -15 -56 -11 0 -20 -4 -20 -9 0 -15 50 1 60 19
6 10 15 42 21 72 6 29 18 64 26 77 28 43 32 78 17 128 -18 60 -12 93 19 93 12
0 34 6 49 14 14 8 42 19 62 26 53 17 176 101 218 148 46 51 98 152 98 190 0
16 7 36 16 43 23 19 58 77 72 118 10 28 9 40 -8 77 -10 24 -16 44 -12 44 4 0
88 -81 187 -180 175 -175 179 -180 168 -207 -6 -16 -45 -113 -88 -218 -87
-215 -197 -537 -250 -730 -89 -326 -130 -569 -160 -946 l-6 -76 -52 -11 c-177
-39 -418 -61 -587 -55 -503 18 -898 180 -1215 498 -242 242 -379 488 -446 805
-19 88 -23 137 -23 300 0 167 3 211 23 305 65 307 209 573 425 791 310 310
663 467 1161 517 62 6 254 8 277 2z m358 -695 c70 -69 95 -119 94 -188 0 -107
-47 -97 -124 25 -59 95 -89 169 -90 221 l0 33 32 -18 c18 -10 58 -43 88 -73z
m57 -396 c10 -26 -17 -65 -104 -151 -116 -117 -130 -112 -61 25 23 46 56 96
75 112 37 33 80 39 90 14z m-1471 -356 c-20 -57 -36 -116 -36 -131 0 -34 -13
-35 -34 -2 -20 31 -21 133 -2 180 8 18 34 48 58 65 41 30 43 30 46 11 2 -11
-13 -67 -32 -123z m88 -177 c16 -54 16 -61 2 -90 -17 -32 -71 -67 -80 -53 -24
39 -12 149 20 200 21 32 36 17 58 -57z m-215 -125 c18 -73 14 -92 -24 -123
-47 -39 -143 -89 -152 -79 -10 9 84 189 119 228 15 16 32 27 36 24 5 -3 15
-26 21 -50z m241 -84 c0 -4 18 -29 41 -56 28 -35 39 -57 37 -75 -3 -23 -8 -26
-46 -29 -24 -2 -64 4 -90 13 -46 15 -102 55 -102 73 0 5 18 14 40 21 22 6 52
23 67 36 28 24 53 32 53 17z m-243 -196 c79 -38 89 -48 68 -66 -17 -14 -64 -1
-137 38 -47 25 -60 45 -35 55 23 10 32 7 104 -27z"/>
<path d="M1778 5725 c-66 -18 -109 -45 -131 -83 -17 -28 -17 -39 -7 -105 6
-41 8 -87 5 -103 l-7 -29 21 25 c11 14 21 35 21 48 0 29 22 71 48 95 19 17 22
17 51 3 34 -18 93 -21 122 -6 13 8 31 7 61 -2 37 -11 44 -18 69 -74 46 -101
53 -94 45 42 -7 119 -7 119 -40 151 -56 52 -155 67 -258 38z"/>
<path d="M1935 5467 c-41 -23 -52 -46 -54 -108 -1 -24 4 -39 14 -43 12 -4 15
3 15 31 0 28 9 48 40 84 56 67 53 75 -15 36z"/>
<path d="M2016 5223 c-10 -31 -70 -80 -112 -92 -31 -8 -46 -6 -91 13 -30 12
-63 30 -75 40 -31 27 -34 11 -11 -60 19 -59 20 -66 5 -77 -8 -7 -37 -34 -64
-61 -60 -61 -64 -88 -6 -46 23 17 54 30 70 30 30 0 171 -61 183 -79 11 -20 37
-12 125 39 51 29 119 58 161 69 96 25 111 31 106 45 -2 6 -57 34 -123 62 -113
49 -120 53 -140 95 -19 39 -22 41 -28 22z"/>
<path d="M2815 4413 c-66 -81 -228 -285 -360 -454 -327 -418 -434 -549 -448
-549 -7 0 -64 41 -127 91 -63 50 -140 108 -170 129 -71 48 -200 113 -200 100
0 -5 62 -72 138 -149 75 -76 193 -198 262 -270 69 -72 133 -131 142 -131 10 0
32 7 50 16 27 12 55 51 145 202 61 103 165 277 230 387 66 110 167 274 225
365 163 257 241 387 236 400 -2 6 -57 -56 -123 -137z"/>
<path d="M2232 4520 c-24 -16 -64 -37 -90 -46 -118 -43 -117 -43 -96 -59 34
-26 82 -29 120 -9 19 10 34 22 34 26 0 4 20 27 45 50 41 38 57 68 38 68 -5 0
-27 -14 -51 -30z"/>
<path d="M1597 4473 c-12 -11 7 -42 29 -47 13 -4 34 -20 46 -36 24 -33 49 -38
69 -14 7 8 29 24 48 34 27 15 31 19 16 20 -12 0 -48 7 -80 16 -98 27 -124 32
-128 27z"/>
<path d="M2257 4385 c-12 -8 -31 -11 -53 -8 -35 6 -43 -3 -21 -26 10 -11 10
-14 0 -18 -21 -8 -15 -20 14 -27 25 -7 83 9 83 23 0 4 -6 13 -12 20 -11 10
-10 15 5 25 18 14 23 26 10 26 -5 0 -16 -7 -26 -15z"/>
<path d="M1900 4328 c-10 -45 -9 -60 5 -98 25 -69 42 -134 50 -191 4 -28 10
-47 14 -42 4 4 15 40 25 79 16 66 17 75 2 125 -20 68 -68 179 -78 179 -3 0
-12 -24 -18 -52z"/>
<path d="M1630 4330 c0 -10 68 -70 80 -70 10 0 40 28 40 38 0 8 -62 31 -97 36
-13 2 -23 0 -23 -4z"/>
<path d="M2285 4286 c-11 -9 -32 -16 -47 -16 -14 0 -41 -12 -58 -27 l-32 -27
6 -80 c11 -132 18 -186 25 -186 25 0 54 187 37 238 -6 17 -3 24 12 30 29 11
84 61 80 72 -2 7 -11 5 -23 -4z"/>
<path d="M840 1965 l0 -555 390 0 390 0 0 100 0 100 -280 0 -280 0 0 455 0
455 -110 0 -110 0 0 -555z"/>
<path d="M1740 1965 l0 -555 110 0 110 0 0 555 0 555 -110 0 -110 0 0 -555z"/>
<path d="M2120 2420 l0 -100 246 0 c148 0 244 -4 242 -9 -3 -9 -201 -268 -440
-575 l-118 -151 0 -87 0 -88 460 0 460 0 0 100 0 100 -305 0 c-168 0 -305 2
-305 5 0 4 79 106 271 350 26 33 102 129 168 214 l121 154 0 94 0 93 -400 0
-400 0 0 -100z"/>
<path d="M2254 1108 c-67 -102 -73 -118 -13 -38 49 65 71 100 62 100 -5 0 -27
-28 -49 -62z"/>
<path d="M2035 1113 c-10 -27 -32 -68 -50 -93 -52 -72 -105 -190 -86 -190 5 0
12 12 16 28 3 15 20 48 36 75 16 26 29 51 29 56 0 4 9 16 19 25 18 17 65 135
57 143 -2 2 -11 -18 -21 -44z"/>
<path d="M3640 1040 c-17 -34 -29 -64 -26 -67 2 -3 19 23 36 57 17 34 29 64
26 67 -2 3 -19 -23 -36 -57z"/>
<path d="M1711 1073 c-1 -27 14 -37 36 -24 16 9 16 10 -4 11 -12 0 -24 8 -26
18 -4 13 -5 12 -6 -5z"/>
<path d="M5871 947 c-35 -69 -61 -131 -59 -139 3 -7 11 5 18 27 7 22 35 80 62
129 26 49 47 94 45 99 -1 5 -31 -47 -66 -116z"/>
<path d="M3814 953 c-26 -54 -56 -111 -67 -127 -12 -16 -15 -27 -8 -25 7 3 23
25 36 49 62 119 96 192 92 197 -3 3 -27 -39 -53 -94z"/>
<path d="M2156 945 c-39 -72 -42 -80 -24 -91 6 -4 8 -3 5 3 -4 6 5 33 19 59
29 54 46 94 40 94 -2 0 -20 -29 -40 -65z"/>
<path d="M2983 968 c-6 -7 -16 -24 -22 -38 -12 -24 -12 -24 4 -5 20 24 37 55
32 55 -3 0 -9 -6 -14 -12z"/>
<path d="M5994 928 c-34 -64 -64 -128 -64 -135 0 -20 33 29 50 73 11 30 27 66
36 80 9 13 14 27 11 30 -3 3 -18 -18 -33 -48z"/>
<path d="M5721 890 c-23 -45 -40 -87 -38 -93 3 -7 10 0 16 16 6 15 24 55 41
89 17 33 29 63 26 65 -2 2 -22 -33 -45 -77z"/>
<path d="M2572 948 c-7 -7 -12 -16 -12 -21 0 -5 -8 -21 -18 -35 -20 -29 -34
-72 -24 -72 4 0 16 19 27 43 10 23 25 54 32 70 14 30 13 33 -5 15z"/>
<path d="M4228 903 c-18 -32 -46 -83 -61 -113 -15 -30 -37 -71 -48 -90 l-21
-35 26 30 c25 29 151 265 142 265 -3 0 -20 -26 -38 -57z"/>
<path d="M4342 927 c-18 -18 -36 -48 -41 -65 -12 -41 -6 -41 15 1 9 17 28 44
42 59 37 40 22 44 -16 5z"/>
<path d="M5528 938 c-34 -32 -54 -67 -62 -108 -6 -34 -6 -34 12 7 9 23 33 58
51 77 39 40 38 59 -1 24z"/>
<path d="M2257 932 c-14 -16 -57 -104 -44 -92 3 3 21 29 40 58 35 50 37 70 4
34z"/>
<path d="M2796 933 c-6 -14 -5 -15 5 -6 7 7 10 15 7 18 -3 3 -9 -2 -12 -12z"/>
<path d="M3161 913 c-33 -40 -45 -87 -16 -63 8 7 12 16 10 21 -3 4 9 24 26 43
17 20 26 36 21 36 -6 0 -24 -17 -41 -37z"/>
<path d="M3440 885 c-40 -87 -33 -95 10 -9 17 36 29 68 26 71 -3 4 -20 -24
-36 -62z"/>
<path d="M3882 887 c-17 -35 -32 -75 -31 -88 l1 -24 7 25 c5 14 20 49 35 77
16 29 26 57 24 63 -2 6 -18 -18 -36 -53z"/>
<path d="M4120 887 c-42 -93 -37 -108 6 -19 20 41 33 76 30 79 -3 4 -19 -24
-36 -60z"/>
<path d="M5599 887 c-17 -37 -29 -72 -26 -79 3 -8 7 -6 11 7 4 11 18 44 32 74
14 29 23 56 20 59 -3 3 -20 -25 -37 -61z"/>
<path d="M3323 928 c-18 -24 -43 -86 -42 -105 0 -14 2 -14 6 -3 3 8 16 37 29
64 23 48 27 69 7 44z"/>
<path d="M3667 882 c-29 -62 -31 -72 -19 -72 10 0 45 78 48 108 2 12 2 22 0
22 -1 0 -15 -26 -29 -58z"/>
<path d="M4577 933 c-4 -3 -7 -11 -7 -17 0 -6 5 -5 12 2 6 6 9 14 7 17 -3 3
-9 2 -12 -2z"/>
<path d="M4645 880 c-38 -79 -25 -89 14 -11 33 65 35 71 23 71 -5 0 -21 -27
-37 -60z"/>
<path d="M5106 902 c-28 -56 -47 -102 -41 -102 2 0 21 32 40 70 19 39 32 70
28 70 -5 0 -16 -17 -27 -38z"/>
<path d="M6072 877 c-43 -89 -41 -108 4 -28 19 35 34 70 32 79 -2 9 -18 -14
-36 -51z"/>
<path d="M2472 918 c-6 -6 -12 -19 -12 -27 0 -13 2 -13 16 1 9 9 15 21 13 27
-3 9 -8 8 -17 -1z"/>
<path d="M3036 881 c-14 -28 -26 -56 -26 -63 1 -7 15 13 31 46 17 32 28 60 25
63 -2 3 -16 -18 -30 -46z"/>
<path d="M4475 920 c-3 -5 -1 -10 4 -10 6 0 11 5 11 10 0 6 -2 10 -4 10 -3 0
-8 -4 -11 -10z"/>
<path d="M5340 883 c-16 -27 -30 -55 -30 -63 0 -8 6 -4 14 10 7 14 23 42 35
63 33 54 16 45 -19 -10z"/>
<path d="M3575 910 c-3 -5 -1 -10 4 -10 6 0 11 5 11 10 0 6 -2 10 -4 10 -3 0
-8 -4 -11 -10z"/>
<path d="M5204 884 c-10 -22 -21 -47 -26 -57 -4 -10 -4 -16 1 -13 12 8 53 97
47 103 -3 3 -13 -12 -22 -33z"/>
<path d="M2922 845 c-17 -25 -28 -45 -24 -45 9 0 65 81 59 86 -2 2 -18 -16
-35 -41z"/>
<path d="M3556 873 c-6 -14 -5 -15 5 -6 7 7 10 15 7 18 -3 3 -9 -2 -12 -12z"/>
<path d="M2652 860 c-6 -11 -12 -30 -12 -42 1 -19 3 -17 16 11 17 40 15 61 -4
31z"/>
<path d="M3365 859 c-4 -6 -5 -12 -2 -15 2 -3 7 2 10 11 7 17 1 20 -8 4z"/>
<path d="M4784 858 c-4 -7 -14 -23 -22 -35 -8 -14 -10 -23 -4 -23 11 0 45 60
38 67 -2 3 -7 -2 -12 -9z"/>
<path d="M2087 805 c-15 -19 -23 -35 -18 -35 6 0 16 9 23 20 7 11 18 20 25 20
7 0 13 7 13 15 0 24 -13 18 -43 -20z"/>
<path d="M4565 830 c-3 -5 -2 -10 4 -10 5 0 13 5 16 10 3 6 2 10 -4 10 -5 0
-13 -4 -16 -10z"/>
<path d="M2390 815 c0 -8 2 -15 4 -15 2 0 6 7 10 15 3 8 1 15 -4 15 -6 0 -10
-7 -10 -15z"/>
<path d="M4471 814 c0 -11 3 -14 6 -6 3 7 2 16 -1 19 -3 4 -6 -2 -5 -13z"/>
<path d="M1763 734 c-7 -7 -13 -19 -13 -26 0 -7 7 -2 16 10 18 26 16 37 -3 16z"/>
<path d="M1931 636 c-10 -12 -52 -26 -116 -40 -11 -2 0 -4 23 -5 45 -1 97 22
106 46 7 17 1 17 -13 -1z"/>
</g>
</svg>
