<?xml version="1.0" standalone="no"?>
<!DOCTYPE svg PUBLIC "-//W3C//DTD SVG 20010904//EN"
 "http://www.w3.org/TR/2001/REC-SVG-20010904/DTD/svg10.dtd">
<svg version="1.0" xmlns="http://www.w3.org/2000/svg"
 width="184.000000pt" height="184.000000pt" viewBox="0 0 184.000000 184.000000"
 preserveAspectRatio="xMidYMid meet">

<g transform="translate(0.000000,184.000000) scale(0.100000,-0.100000)"
fill="#000000" stroke="none">
<path d="M0 1540 l0 -300 33 -1 c25 -1 1744 0 1795 1 9 0 12 67 12 300 l0 300
-920 0 -920 0 0 -300z m1160 140 c0 -59 -12 -80 -23 -39 -5 18 -12 20 -64 17
l-58 -3 -6 -44 c-3 -24 -4 -54 -1 -67 4 -22 9 -24 68 -24 l64 0 0 34 c0 19 5
38 10 41 7 4 10 -31 8 -107 l-3 -113 -85 0 -85 0 -3 159 c-2 108 1 163 9 172
8 9 34 14 80 14 37 0 71 5 74 10 12 19 15 9 15 -50z m-990 -65 l0 -65 30 0
c20 0 30 -5 30 -15 0 -11 -12 -15 -50 -15 l-50 0 0 80 c0 73 2 80 20 80 18 0
20 -7 20 -65z m100 -15 c0 -64 -3 -80 -15 -80 -12 0 -15 16 -15 80 0 64 3 80
15 80 12 0 15 -16 15 -80z m112 63 c10 -9 18 -25 18 -36 0 -26 -28 -57 -51
-57 -11 0 -19 -9 -21 -22 -2 -13 -11 -24 -20 -26 -16 -3 -18 6 -18 77 l0 81
37 0 c20 0 45 -7 55 -17z m113 -55 c17 -39 32 -75 33 -80 6 -14 -27 -9 -35 6
-4 7 -20 15 -35 18 -21 4 -29 1 -33 -13 -7 -20 -35 -27 -35 -9 0 15 62 150 69
150 3 0 20 -32 36 -72z m205 20 c0 39 4 52 15 52 12 0 15 -16 15 -87 l0 -87
-50 49 -50 49 0 -42 c0 -31 -4 -42 -15 -42 -12 0 -15 16 -15 83 l1 82 49 -55
49 -55 1 53z m136 -5 c46 -102 46 -103 24 -103 -10 0 -20 7 -22 17 -4 24 -59
25 -66 1 -4 -18 -32 -26 -32 -9 0 5 9 31 21 58 11 26 25 58 30 71 5 12 11 22
14 22 3 0 17 -26 31 -57z m455 37 c43 -24 10 -100 -43 -100 -11 0 -18 -8 -18
-20 0 -13 -7 -20 -20 -20 -18 0 -20 7 -20 75 l0 75 41 0 c22 0 49 -5 60 -10z
m147 -7 c-2 -12 -14 -19 -36 -21 -44 -4 -41 -22 4 -22 28 0 35 -3 32 -17 -2
-12 -14 -19 -36 -21 -64 -6 -30 -21 48 -20 83 0 92 7 41 28 -32 13 -45 37 -35
64 12 32 106 36 112 4 2 -13 -5 -17 -35 -20 l-38 -3 38 -22 c26 -16 37 -29 37
-46 0 -36 -23 -50 -72 -43 -24 3 -73 5 -110 5 l-68 0 0 75 0 76 61 0 c52 0 60
-2 57 -17z m268 -48 c13 -33 23 -66 23 -72 1 -18 -38 -16 -45 2 -4 8 -17 15
-30 15 -14 0 -27 -7 -30 -15 -4 -8 -17 -15 -29 -15 l-24 0 26 76 c25 73 26 75
56 72 27 -3 33 -9 53 -63z"/>
<path d="M325 1625 c0 -20 4 -25 20 -23 12 2 20 11 20 23 0 12 -8 21 -20 23
-16 2 -20 -3 -20 -23z"/>
<path d="M446 1595 c-3 -9 0 -15 9 -15 16 0 20 16 6 24 -5 3 -11 -1 -15 -9z"/>
<path d="M796 1595 c-3 -9 0 -15 9 -15 9 0 12 6 9 15 -4 8 -7 15 -9 15 -2 0
-5 -7 -9 -15z"/>
<path d="M1230 1615 c0 -8 9 -15 20 -15 11 0 20 7 20 15 0 8 -9 15 -20 15 -11
0 -20 -7 -20 -15z"/>
<path d="M1646 1605 c-3 -8 -1 -15 4 -15 6 0 10 7 10 15 0 8 -2 15 -4 15 -2 0
-6 -7 -10 -15z"/>
<path d="M440 1081 c0 -5 9 -11 20 -14 17 -4 20 -14 20 -56 0 -28 5 -51 10
-51 6 0 10 25 10 55 0 48 2 55 20 55 11 0 20 5 20 10 0 6 -22 10 -50 10 -27 0
-50 -4 -50 -9z"/>
<path d="M550 1080 c0 -5 7 -10 15 -10 8 0 15 5 15 10 0 6 -7 10 -15 10 -8 0
-15 -4 -15 -10z"/>
<path d="M602 1028 c2 -35 8 -63 13 -63 6 0 11 28 13 63 2 51 0 62 -13 62 -13
0 -15 -11 -13 -62z"/>
<path d="M652 1028 c2 -35 8 -63 13 -63 6 0 11 28 13 63 2 51 0 62 -13 62 -13
0 -15 -11 -13 -62z"/>
<path d="M752 1028 c3 -70 21 -85 26 -24 l3 39 26 -42 c13 -23 30 -40 36 -38
7 2 13 30 15 65 2 51 0 62 -13 62 -11 0 -15 -10 -15 -37 l0 -38 -25 38 c-40
58 -57 50 -53 -25z"/>
<path d="M1152 1029 c3 -61 3 -62 34 -65 40 -4 56 14 52 58 -3 29 -7 33 -30
33 -20 -1 -28 4 -28 17 0 10 -7 18 -15 18 -13 0 -15 -11 -13 -61z m63 -19 c0
-36 -29 -33 -33 3 -3 23 0 28 15 25 12 -2 18 -12 18 -28z"/>
<path d="M552 1013 c2 -27 8 -48 13 -48 6 0 11 21 13 48 3 38 0 47 -13 47 -13
0 -16 -9 -13 -47z"/>
<path d="M880 1021 c0 -46 15 -61 55 -57 28 3 30 6 33 50 2 35 0 46 -12 46
-10 0 -16 -12 -18 -37 -2 -21 -7 -38 -13 -38 -5 0 -11 17 -13 38 -4 52 -32 51
-32 -2z"/>
<path d="M992 1010 c4 -55 22 -60 26 -7 4 49 26 44 30 -6 2 -20 7 -37 12 -37
5 0 10 17 12 37 4 50 26 55 30 6 2 -21 8 -38 13 -38 12 0 19 39 11 70 -5 21
-11 23 -71 22 l-66 -1 3 -46z"/>
<path d="M1272 1048 c-22 -22 -14 -67 13 -80 22 -10 29 -9 43 6 16 18 16 18
-10 12 -15 -3 -30 -2 -33 4 -4 6 6 10 24 10 23 0 31 5 31 18 0 22 -19 42 -40
42 -9 0 -21 -5 -28 -12z m43 -18 c3 -5 -3 -10 -15 -10 -12 0 -18 5 -15 10 3 6
10 10 15 10 5 0 12 -4 15 -10z"/>
<path d="M1362 1011 c3 -53 21 -62 26 -13 2 18 10 36 18 39 25 9 15 22 -16 21
-30 -1 -31 -2 -28 -47z"/>
<path d="M893 760 c-19 -8 -43 -38 -43 -54 0 -13 44 -5 55 11 15 20 45 11 45
-15 0 -10 -22 -41 -50 -69 -29 -29 -50 -60 -50 -72 0 -21 4 -22 72 -19 60 2
73 6 76 21 3 14 -4 17 -42 17 -25 0 -46 2 -46 4 0 2 20 24 45 48 49 49 57 84
28 111 -24 21 -63 28 -90 17z"/>
<path d="M1144 756 c-37 -16 -48 -46 -27 -75 13 -19 12 -23 -1 -37 -20 -20
-20 -58 0 -78 60 -60 168 -1 132 72 -10 20 -11 35 -4 55 18 49 -43 87 -100 63z
m55 -30 c17 -20 2 -48 -23 -44 -24 3 -34 37 -14 49 18 12 24 11 37 -5z m6
-116 c0 -20 -5 -25 -25 -25 -20 0 -26 6 -28 28 -3 26 -1 28 25 25 22 -2 28 -8
28 -28z"/>
<path d="M1405 762 c-22 -5 -55 -30 -55 -44 0 -4 11 -8 25 -8 14 0 25 5 25 11
0 6 10 9 22 7 30 -4 37 -38 9 -45 -28 -7 -28 -43 -1 -43 16 0 20 -7 20 -30 0
-25 -4 -30 -25 -30 -14 0 -28 7 -31 15 -7 18 -44 20 -44 3 0 -19 12 -33 37
-47 32 -16 57 -14 87 10 30 23 34 60 10 84 -13 12 -14 19 -5 28 15 15 14 62
-1 74 -17 14 -49 20 -73 15z"/>
<path d="M111 710 c-16 -72 -16 -71 37 -68 44 3 47 1 50 -23 2 -14 -4 -31 -12
-38 -12 -10 -19 -8 -35 8 -23 23 -46 27 -56 11 -11 -18 42 -60 75 -60 38 0 80
39 80 73 0 37 -31 70 -68 71 -23 1 -32 6 -32 19 0 14 9 17 45 17 38 0 45 3 45
20 0 18 -7 20 -59 20 l-59 0 -11 -50z"/>
<path d="M375 740 c-19 -21 -31 -95 -21 -135 23 -92 140 -83 140 12 0 44 -35
77 -71 68 -24 -6 -28 1 -17 29 7 17 44 22 44 6 0 -5 9 -10 20 -10 22 0 26 20
8 38 -19 19 -82 15 -103 -8z m73 -128 c3 -30 1 -33 -20 -30 -23 3 -34 27 -24
54 11 28 41 11 44 -24z"/>
<path d="M620 733 c-19 -24 -21 -38 -18 -92 5 -72 27 -101 79 -101 44 0 71 33
67 83 -2 34 -8 44 -30 55 -18 9 -34 9 -52 2 -29 -11 -30 -11 -16 24 9 25 50
38 50 16 0 -5 11 -10 25 -10 30 0 32 11 7 33 -30 27 -87 22 -112 -10z m80
-102 c14 -27 2 -53 -24 -49 -30 4 -37 68 -7 68 11 0 25 -9 31 -19z"/>
<path d="M1626 744 c-22 -22 -29 -57 -24 -116 8 -83 71 -115 123 -63 29 28 32
61 9 94 -13 19 -24 22 -55 19 -35 -3 -38 -2 -33 17 10 33 22 40 47 26 14 -7
32 -11 41 -9 15 3 15 5 1 26 -19 27 -85 31 -109 6z m72 -122 c2 -13 -2 -29 -8
-37 -23 -28 -57 8 -44 47 8 27 48 20 52 -10z"/>
</g>
</svg>
